# AST/ASF file generated using VICON BodyLanguage
# -----------------------------------------------
:version 1.10
:name VICON
:units
  mass 1.0
  length 0.45
  angle deg
:documentation
   .ast/.asf automatically generated from VICON data using
   VICON BodyBuilder and BodyLanguage model FoxedUp or BRILLIANT.MOD
:root
   order TX TY TZ RX RY RZ
   axis XYZ
   position 0 0 0  
   orientation 0 0 0 
:bonedata
  begin
     id 1 
     name lhipjoint
     direction 0.606768 -0.715223 0.346827 
     length 2.41543 
     axis 0 0 0  XYZ
  end
  begin
     id 2 
     name lfemur
     direction 0.34202 -0.939693 0  
     length 7.2778  
     axis 0 0 20  XYZ
    dof rx ry rz
    limits (-160.0 20.0)
           (-70.0 70.0)
           (-60.0 70.0)
  end
  begin
     id 3 
     name ltibia
     direction 0.34202 -0.939693 0   
     length 7.61811   
     axis 0 0 20   XYZ
    dof rx
    limits (-10.0 170.0)
  end
  begin
     id 4 
     name lfoot
     direction 0.0823924 -0.226371 0.97055   
     length 2.33618   
     axis -90 7.62852e-016 20   XYZ
    dof rx rz
    limits (-45.0 90.0)
           (-70.0 20.0)
  end
  begin
     id 5 
     name ltoes
     direction 1.53554e-011 -4.21934e-011 1   
     length 1.17015   
     axis -90 7.62852e-016 20   XYZ
    dof rx
    limits (-90.0 20.0)
  end
  begin
     id 6 
     name rhipjoint
     direction -0.6077 -0.714582 0.346516   
     length 2.4176  
     axis 0 0 0  XYZ 
  end
  begin
     id 7 
     name rfemur
     direction -0.34202 -0.939693 0   
     length 7.28127   
     axis 0 0 -20   XYZ
    dof rx ry rz
    limits (-160.0 20.0)
           (-70.0 70.0)
           (-70.0 60.0)
  end
  begin
     id 8 
     name rtibia
     direction -0.34202 -0.939693 0   
     length 7.77648   
     axis 0 0 -20   XYZ
    dof rx
    limits (-10.0 170.0)
 end
 begin
     id 9 
     name rfoot
     direction -0.0809463 -0.222398 0.97159   
     length 2.37533  
     axis -90 -7.62852e-016 -20   XYZ
    dof rx rz
    limits (-45.0 90.0)
           (-20.0 70.0)
  end
  begin
     id 10 
     name rtoes
     direction -1.53568e-011 -4.21714e-011 1   
     length 1.18972   
     axis -90 -7.62852e-016 -20   XYZ
    dof rx
    limits (-90.0 20.0)
  end
  begin
     id 11 
     name lowerback
     direction 0.010968 0.991932 -0.126297   
     length 2.21698   
     axis 0 0 0   XYZ
    dof rx ry rz
    limits (-20.0 45.0)
           (-30.0 30.0)
           (-30.0 30.0)
  end
  begin
     id 12 
     name upperback
     direction 0.0167007 0.997503 -0.0686276   
     length 2.22371   
     axis 0 0 0   XYZ
    dof rx ry rz
    limits (-20.0 45.0)
           (-30.0 30.0)
           (-30.0 30.0)
  end
  begin
     id 13 
     name thorax
     direction 0.0111721 0.999885 -0.0102878   
     length 2.25242   
     axis 0 0 0   XYZ
    dof rx ry rz
    limits (-20.0 45.0)
           (-30.0 30.0)
           (-30.0 30.0)
  end
  begin
     id 14 
     name lowerneck
     direction -0.0120265 0.990428 0.137508   
     length 1.57674   
     axis 0 0 0   XYZ
    dof rx ry rz
    limits (-20.0 45.0)
           (-30.0 30.0)
           (-30.0 30.0)
  end
  begin
     id 15 
     name upperneck
     direction 0.0175669 0.998907 0.0433089   
     length 1.5618   
     axis 0 0 0   XYZ
    dof rx ry rz
    limits (-20.0 45.0)
           (-30.0 30.0)
           (-30.0 30.0)
  end
  begin
     id 16
     name head
     direction 0.00754609 0.99997 0.00185367  
     length 1.60579  
     axis 0 0 0   XYZ
    dof rx ry rz
    limits (-20.0 45.0)
           (-30.0 30.0)
           (-30.0 30.0)
  end
  begin
     id 17 
     name lclavicle
     direction 0.885866 0.429166 -0.176231  
     length 3.44967  
     axis 0 0 0   XYZ
    dof ry rz
    limits (-20.0 10.0)
           (0.0 20.0)
  end
  begin
     id 18 
     name lhumerus
     direction 1 -4.48973e-011 -1.90255e-027   
     length 5.20607   
     axis 180 -30 -90   XYZ
    dof rx ry rz
    limits (-60.0 90.0)
           (-90.0 90.0)
           (-90.0 90.0)
  end
  begin
     id 19
     name lradius
     direction 1 -4.48956e-011 9.87925e-027   
     length 3.39961   
     axis 180 -30 -90   XYZ
    dof rx
    limits (-10.0 170.0)
  end
  begin
     id 20
     name lwrist
     direction 1 -4.48985e-011 1.73247e-026   
     length 1.6998   
     axis -9.60847e-015 90 90   XYZ
    dof ry
    limits (-180.0 0.0)
 end
  begin
     id 21 
     name lhand
     direction 1 -4.48798e-011 3.46119e-026   
     length 0.519693   
     axis -2.21073e-014 90 90   XYZ
    dof rx rz
    limits (-90.0 90.0)
           (-45.0 45.0)
  end
  begin
     id 22 
     name lfingers
     direction 1 -4.48938e-011 6.92797e-026   
     length 0.41899   
     axis -4.42155e-014 90 90   XYZ
    dof rx
    limits (0.0 90.0)
  end
  begin
     id 23
     name lthumb
     direction 0.707107 -6.34952e-011 0.707107   
     length 0.601588   
     axis -90 45 6.0103e-014   XYZ
    dof rx rz
    limits (-45.0 45.0)
           (-45.0 45.0)
  end
  begin
     id 24 
     name rclavicle
     direction -0.866736 0.456792 -0.200276   
     length 3.45032  
     axis 0 0 0   XYZ 
    dof ry rz
    limits (-10.0 20.0)
           (-20.0 0.0)
  end
  begin
     id 25 
     name rhumerus
     direction -1 -4.4897e-011 8.65094e-028  
     length 5.32214   
     axis 180 30 90   XYZ
    dof rx ry rz
    limits (-90.0 60.0)
           (-90.0 90.0)
           (-90.0 90.0)
  end
  begin
     id 26 
     name rradius
     direction -1 -4.48987e-011 1.08427e-026   
     length 3.51208   
     axis 180 30 90   XYZ
    dof rx
    limits (-10.0 170.0)
  end
  begin
     id 27 
     name rwrist
     direction -1 -4.48961e-011 1.73222e-026   
     length 1.75604   
     axis -9.60847e-015 -90 -90   XYZ
    dof ry
    limits (-180.0 0.0)
  end
  begin
     id 28
     name rhand
     direction -1 -4.48895e-011 3.46314e-026   
     length 0.586681   
     axis -2.21073e-014 -90 -90   XYZ
    dof rx rz
    limits (-90.0 90.0)
           (-45.0 45.0)
  end
  begin
     id 29
     name rfingers
     direction -1 -4.48968e-011 6.92916e-026   
     length 0.472997   
     axis -4.42155e-014 -90 -90   XYZ
    dof rx
    limits (0.0 90.0)
  end
  begin
     id 30
     name rthumb
     direction -0.707107 -6.34848e-011 0.707107   
     length 0.679133   
     axis -90 -45 -6.0103e-014   XYZ
    dof rx rz
    limits (-45.0 45.0)
           (-45.0 45.0)
  end
:hierarchy
  begin
    root lhipjoint rhipjoint lowerback
    lhipjoint lfemur
    lfemur ltibia
    ltibia lfoot
    lfoot ltoes
    rhipjoint rfemur
    rfemur rtibia
    rtibia rfoot
    rfoot rtoes
    lowerback upperback
    upperback thorax
    thorax lowerneck lclavicle rclavicle
    lowerneck upperneck
    upperneck head
    lclavicle lhumerus
    lhumerus lradius
    lradius lwrist
    lwrist lhand lthumb
    lhand lfingers
    rclavicle rhumerus
    rhumerus rradius
    rradius rwrist
    rwrist rhand rthumb
    rhand rfingers
  end

#!OML:ASF H:\Dans Jumps\Project 1\Capture day 1\Session 1\subject.ASF
:FULLY-SPECIFIED
:DEGREES
55
root 0.483702 17.5541 -13.8921 5.47369 0.558896 -1.77606
lowerback -4.71283 -0.707268 0.847272
upperback 1.44421 -1.06873 1.78541
thorax 4.15386 -0.533157 1.28023
lowerneck -12.8176 -0.315223 -2.47221
upperneck 3.67055 -0.0996422 1.07582
head 3.48271 -0.0419645 0.791543
rclavicle 3.67752e-015 1.59028e-015
rhumerus -25.2239 -20.6114 -79.5747
rradius 24.888
rwrist 33.5584
rhand -16.9715 -27.1507
rfingers 7.12502
rthumb 9.26285 -56.9272
lclavicle 3.67752e-015 1.59028e-015
lhumerus -23.2034 -2.20607 90.0865
lradius 19.4208
lwrist 2.94769
lhand -24.4103 -2.99559
lfingers 7.12502
lthumb 2.0811 26.974
rfemur -10.7142 -3.47382 20.1479
rtibia 18.9146
rfoot -12.9904 -2.02362
rtoes 4.012
lfemur -9.30715 8.79257 -17.3634
ltibia 15.7517
lfoot -10.8182 2.60398
ltoes -6.7724
56
root 0.486232 17.5541 -13.8933 5.47234 0.545905 -1.78136
lowerback -4.71001 -0.707342 0.846224
upperback 1.44456 -1.06907 1.79422
thorax 4.15285 -0.533478 1.28993
lowerneck -12.841 -0.307174 -2.46671
upperneck 3.65834 -0.0878738 1.05757
head 3.48263 -0.0367781 0.78533
rclavicle 3.72721e-015 -1.15295e-014
rhumerus -25.2025 -20.6279 -79.5795
rradius 24.8685
rwrist 33.5907
rhand -16.9571 -27.1652
rfingers 7.12502
rthumb 9.27673 -56.9411
lclavicle 3.72721e-015 -1.15295e-014
lhumerus -23.2041 -2.24152 90.1065
lradius 19.4523
lwrist 2.96912
lhand -24.4073 -2.98925
lfingers 7.12502
lthumb 2.08403 26.9803
rfemur -10.7168 -3.44554 20.144
rtibia 18.9113
rfoot -12.9809 -2.04065
rtoes 3.98672
lfemur -9.315 8.79504 -17.3678
ltibia 15.7642
lfoot -10.823 2.60129
ltoes -6.7665
57
root 0.488746 17.554 -13.8944 5.47179 0.532299 -1.78795
lowerback -4.70588 -0.707595 0.846435
upperback 1.44414 -1.06971 1.80367
thorax 4.15028 -0.533925 1.29957
lowerneck -12.8622 -0.29971 -2.46216
upperneck 3.64559 -0.0768146 1.03962
head 3.48193 -0.0319478 0.779328
rclavicle 5.66536e-015 5.96354e-015
rhumerus -25.1863 -20.6295 -79.5861
rradius 24.8546
rwrist 33.6094
rhand -16.9468 -27.1747
rfingers 7.12502
rthumb 9.28668 -56.9502
lclavicle 5.66536e-015 5.96354e-015
lhumerus -23.2045 -2.27919 90.1265
lradius 19.4804
lwrist 2.99252
lhand -24.4019 -2.97586
lfingers 7.12502
lthumb 2.08919 26.9937
rfemur -10.7216 -3.41714 20.1417
rtibia 18.9099
rfoot -12.9717 -2.05671
rtoes 3.96367
lfemur -9.3235 8.79693 -17.3708
ltibia 15.7756
lfoot -10.826 2.60127
ltoes -6.76861
58
root 0.49122 17.554 -13.8956 5.47046 0.519845 -1.79334
lowerback -4.69966 -0.708342 0.844702
upperback 1.44307 -1.07083 1.81308
thorax 4.1459 -0.534661 1.31026
lowerneck -12.8792 -0.293139 -2.45637
upperneck 3.63258 -0.0671907 1.02079
head 3.48036 -0.0278545 0.77269
rclavicle 1.52567e-014 -1.15295e-014
rhumerus -25.1774 -20.6165 -79.5938
rradius 24.8481
rwrist 33.6124
rhand -16.935 -27.185
rfingers 7.12502
rthumb 9.29802 -56.9599
lclavicle 1.52567e-014 -1.15295e-014
lhumerus -23.2023 -2.31799 90.1467
lradius 19.5008
lwrist 3.01922
lhand -24.4028 -2.9548
lfingers 7.12502
lthumb 2.0883 27.0147
rfemur -10.7266 -3.39114 20.1383
rtibia 18.9111
rfoot -12.9637 -2.07018
rtoes 3.95265
lfemur -9.3299 8.79911 -17.3749
ltibia 15.7846
lfoot -10.8277 2.59948
ltoes -6.77077
59
root 0.493687 17.5539 -13.8967 5.46698 0.507473 -1.79498
lowerback -4.68924 -0.709509 0.839099
upperback 1.44151 -1.07214 1.82188
thorax 4.13869 -0.535589 1.32252
lowerneck -12.8917 -0.288172 -2.45499
upperneck 3.61878 -0.0593378 1.00509
head 3.47769 -0.0245713 0.76774
rclavicle -4.32357e-015 2.3059e-014
rhumerus -25.1747 -20.5879 -79.6029
rradius 24.8487
rwrist 33.6
rhand -16.929 -27.1929
rfingers 7.12502
rthumb 9.30388 -56.9676
lclavicle -4.32357e-015 2.3059e-014
lhumerus -23.1961 -2.35608 90.167
lradius 19.5097
lwrist 3.04607
lhand -24.4126 -2.9414
lfingers 7.12502
lthumb 2.07891 27.0282
rfemur -10.73 -3.36598 20.1306
rtibia 18.9154
rfoot -12.9588 -2.08147
rtoes 3.95842
lfemur -9.33203 8.79993 -17.3827
ltibia 15.7903
lfoot -10.8273 2.60009
ltoes -6.7744
60
root 0.496168 17.5537 -13.8978 5.46192 0.495653 -1.79497
lowerback -4.67672 -0.710761 0.832933
upperback 1.44031 -1.07346 1.8297
thorax 4.13066 -0.536521 1.3341
lowerneck -12.9033 -0.28382 -2.45584
upperneck 3.60626 -0.0522255 0.992961
head 3.47535 -0.0215359 0.764331
rclavicle 1.54058e-015 -4.37326e-015
rhumerus -25.1771 -20.5481 -79.6139
rradius 24.8567
rwrist 33.5779
rhand -16.9262 -27.203
rfingers 7.12502
rthumb 9.30654 -56.9776
lclavicle 1.54058e-015 -4.37326e-015
lhumerus -23.1861 -2.38618 90.1842
lradius 19.5126
lwrist 3.06944
lhand -24.4201 -2.93006
lfingers 7.12502
lthumb 2.07164 27.0396
rfemur -10.7326 -3.34114 20.1209
rtibia 18.9228
rfoot -12.9565 -2.09209
rtoes 3.97106
lfemur -9.33053 8.80041 -17.3921
ltibia 15.7925
lfoot -10.8256 2.60112
ltoes -6.779
61
root 0.498672 17.5536 -13.8989 5.45533 0.485289 -1.79159
lowerback -4.66056 -0.712392 0.825288
upperback 1.43889 -1.07504 1.83576
thorax 4.12034 -0.537599 1.3447
lowerneck -12.9116 -0.280047 -2.45884
upperneck 3.59313 -0.0458362 0.983794
head 3.47219 -0.0187584 0.762226
rclavicle 2.08724e-015 -1.43125e-014
rhumerus -25.1839 -20.5008 -79.6261
rradius 24.8688
rwrist 33.5478
rhand -16.9292 -27.2054
rfingers 7.12502
rthumb 9.30371 -56.9801
lclavicle 2.08724e-015 -1.43125e-014
lhumerus -23.1736 -2.40979 90.1987
lradius 19.5088
lwrist 3.08591
lhand -24.4375 -2.93621
lfingers 7.12502
lthumb 2.05483 27.0336
rfemur -10.7347 -3.31781 20.1075
rtibia 18.9332
rfoot -12.9573 -2.10384
rtoes 3.98489
lfemur -9.32594 8.7994 -17.405
ltibia 15.7915
lfoot -10.8226 2.60186
ltoes -6.77921
62
root 0.50125 17.5533 -13.9001 5.44756 0.47607 -1.78651
lowerback -4.64119 -0.714602 0.818287
upperback 1.4369 -1.07731 1.84059
thorax 4.10759 -0.538987 1.35367
lowerneck -12.9205 -0.275722 -2.46067
upperneck 3.58074 -0.0388175 0.973658
head 3.46937 -0.0156975 0.759641
rclavicle 1.09332e-015 4.77083e-015
rhumerus -25.1943 -20.4481 -79.6382
rradius 24.8824
rwrist 33.5136
rhand -16.9342 -27.2056
rfingers 7.12502
rthumb 9.29887 -56.9805
lclavicle 1.09332e-015 4.77083e-015
lhumerus -23.1599 -2.42747 90.2099
lradius 19.5002
lwrist 3.09787
lhand -24.4462 -2.93452
lfingers 7.12502
lthumb 2.04639 27.0354
rfemur -10.7361 -3.30019 20.0922
rtibia 18.9455
rfoot -12.9608 -2.11379
rtoes 3.98469
lfemur -9.31901 8.79884 -17.4199
ltibia 15.7888
lfoot -10.8192 2.60194
ltoes -6.78202
63
root 0.503897 17.553 -13.9012 5.43852 0.467548 -1.7809
lowerback -4.62105 -0.716779 0.813362
upperback 1.43641 -1.07964 1.84412
thorax 4.09588 -0.54033 1.36012
lowerneck -12.9335 -0.2707 -2.45733
upperneck 3.56902 -0.0312785 0.958957
head 3.46755 -0.0125006 0.754666
rclavicle 6.36111e-015 1.03368e-014
rhumerus -25.2032 -20.3951 -79.652
rradius 24.896
rwrist 33.472
rhand -16.934 -27.2186
rfingers 7.12502
rthumb 9.29907 -56.9935
lclavicle 6.36111e-015 1.03368e-014
lhumerus -23.1425 -2.44205 90.2186
lradius 19.4862
lwrist 3.10419
lhand -24.45 -2.93511
lfingers 7.12502
lthumb 2.04274 27.0349
rfemur -10.7369 -3.28698 20.0762
rtibia 18.959
rfoot -12.9651 -2.12254
rtoes 3.97514
lfemur -9.31031 8.79725 -17.4353
ltibia 15.7859
lfoot -10.8162 2.60288
ltoes -6.78227
